<svg id="Capa_1" data-name="Capa 1" xmlns="http://www.w3.org/2000/svg" viewBox="0 0 1623.6 546.4"><defs><style>.cls-1{fill:#322e63;}.cls-16,.cls-2{fill:#eaf2fe;}.cls-3{fill:#28b0d4;}.cls-4{fill:#36c7e2;}.cls-5{fill:#fe765c;}.cls-6{fill:#b3d1f7;}.cls-7{fill:#fefefe;}.cls-8{fill:#fddb7a;}.cls-9{fill:#fdda7a;}.cls-10{fill:#2fb3c1;}.cls-11{fill:#2fb0bf;}.cls-12{fill:#121873;}.cls-13{fill:#889af9;}.cls-14{fill:#6783f5;}.cls-15{fill:#f6d75d;}.cls-16{font-size:240px;font-family:RoundedMplus1c-Medium, "Rounded Mplus 1c";font-weight:500;}.cls-17{letter-spacing:-0.03em;}.cls-18{letter-spacing:0em;}.cls-19{letter-spacing:-0.01em;}.cls-20{letter-spacing:0em;}</style></defs><title>logo_bitacora_min_2</title><path class="cls-1" d="M727.4,491.1c0,54.1-.1,108.2.2,162.2,0,6.7-2.3,10.2-8,13.2-35.9,18.5-71.5,37.5-107.4,56-4.6,2.4-5.4,4.4-3.3,9.2s5.6,3.4,9,1.7c4.9-2.4,9.7-4.8,14.6-7,10-4.5,19.4-1,23.9,8.5l25.2,53.7c1.7,3.7,4.5,7.5,1,11.4s-7.5,2-10.7.4c-6.9-3.4-10.1-1.3-12,5.7-.9,3.6-2.1,7.7-7.2,7.8s-6.1-3.9-7.8-7.3c-4.5-9.3-9.3-18.4-13.3-27.8-2.1-5-4.3-5.3-8.6-2.9a145.5,145.5,0,0,1-13.3,6c-11.6,5-20.6,1.7-26.2-9.6-3.8-7.9-7.7-15.7-11.1-23.7-1.8-4.6-3.8-4.9-8-2.8-23.8,11.5-47.9,22.5-71.6,34.3-12.8,6.3-24.8,6.4-37.6-.1Q341.7,722.8,227.8,666c-5.4-2.6-7.4-5.9-7.4-11.9q.3-163.1.2-326c0-11,3.2-13,13-7.9a21.1,21.1,0,0,1,3.3,1.8c7.2,5.6,13.9,5.2,20.6-.8,4.8-4.4,9.3-4.1,15.2-1,40.6,21.1,81.5,41.7,122.1,62.7,4.2,2.2,7.1,2.5,10.8-1.1s9.5-7.8,14.3-11.6c10.5-8.2,97.4-8,108.6.8,5.8,4.5,11,12,17.5,13.3s13.3-5.4,19.9-8.7q55.8-28.1,111.4-56.5c4.3-2.2,7.9-2.4,11.3.8,7.9,7.4,15.5,7,24.6,1.1,10.9-6.9,14.2-4.5,14.2,8.7Z" transform="translate(-220.4 -267.5)"/><path class="cls-2" d="M676.4,333.7V601.3a24.1,24.1,0,0,1,0,3.8c-.3,1.7,1.3,4.7-2.1,4.8s-2.1-2.4-2.7-4c-5.5-16.7-16.7-27.4-34-31.3-8.5-1.8-17-1.5-25,2.1-4.3,2-7.1,1.6-10.8-1.5a41.6,41.6,0,0,0-35.9-9.8c-3.2.5-5,0-7.2-2.5-8.8-10-20.1-13.3-32.8-9.8s-20.5,12.3-22.8,25.5c-.3,1.7-.8,3.5-1,5.3s-1.1,3.4-3.2,3.7-3.9-1.4-4.4-3.6a39.4,39.4,0,0,1-.4-6.9c0-40.4.1-80.8-.2-121.2,0-1.5.2,9.5.2-12.2,0-18.5,60.5-48.3,62.9-49.5Z" transform="translate(-220.4 -267.5)"/><path class="cls-2" d="M271.7,609.1V334l33.8,17.1c27.5,14,54.9,28.2,82.4,42,3.7,1.8,66,28.7,66,55.3V574.8c0,1.5.1,3.1,0,4.6-.2,3.3.5,7.6-3.9,8.1s-4.2-4.6-4.7-7.3c-2.3-13.8-9.6-23.3-23.1-27s-24.5-.2-33.3,10.2c-2.1,2.5-4,2.4-6.7,2-14.4-2.5-27,1.5-37.8,11.1-2.5,2.3-4.2,3.2-7.8,1.6-26.7-11.5-53.1.6-62.2,28.2a22.2,22.2,0,0,1-1.4,3.2Z" transform="translate(-220.4 -267.5)"/><path class="cls-3" d="M466.3,518.6c0-21.1.2-42.2-.2-63.3-.1-6.7,3.1-6.7,7.9-6.8s7.9.4,7.9,6.9q-.4,62.9-.1,125.9c0,15,12.9,23.5,24.9,16.7,6.3-3.6,8.2-9.5,8.8-16.2a19,19,0,0,1,29.3-14.5c3.5,2.1,5.4,4,.7,7a27.5,27.5,0,0,0-5.6,5.2c-2.7,2.9-3,6.1-.1,8.9s6,2.5,8.8-.3a36.9,36.9,0,0,1,12-8.3,32.3,32.3,0,0,1,44.7,26.1c.2,1.3.1,2.6.3,3.9.6,3.5,2.5,5.7,6.2,5.6s5.9-2.7,6-6.6a28.3,28.3,0,0,0-2-12.9c-2.6-5.8,0-7.7,5.2-9,18.3-4.7,37.2,8.5,39.8,27.9,1.4,10.7,1.4,10.7,11.9,8.8,1.3-.2,2.8-.7,3.3.8s.5,3-.2,3.6a15.8,15.8,0,0,1-5,3.4c-25.4,12.6-50.8,25-76,37.8-4.8,2.4-6.3,1.1-8.4-3.2a44.4,44.4,0,0,0-44.1-25.3c-3.7.3-6-.4-8.7-3.1-21-21.6-46.2-27.4-74.9-18.8a9,9,0,0,1-8.4-1.2c-27.1-17.4-60.1-4.8-68.7,26.2-.9,3.4-2.2,5.2-5.6,6.3a29.5,29.5,0,0,0-17.7,15.1c-1.9,3.8-3.6,4.7-7.6,2.7-24.8-12.5-49.8-24.7-74.7-37-2.3-1.2-5.3-2.1-4.2-5.5s3.7-.2,5.5-.1c7.1.5,7.6-4.1,8-9.4,1.6-20.6,22-34.3,41.7-28.4,5.3,1.6,7.3,3.8,4.9,9.3a26.8,26.8,0,0,0-1.7,12.9c.4,3.6,2.4,5.7,6.1,5.7s5.3-1.9,5.9-5,.5-5.7,1.1-8.4c5.9-23.4,33.2-32.5,52.1-17.5a46.1,46.1,0,0,1,4,3.7c2.9,2.8,6.1,2.9,8.9.1s2.3-6-.3-8.9c-1.2-1.3-2.5-2.6-3.8-3.8-5.9-5.2-5.7-6.6,1.8-9.8a19.1,19.1,0,0,1,26.5,15.3,35.7,35.7,0,0,0,.4,4.6c2.2,9.9,9.4,15.3,18.9,14.3s14.3-7.9,14.4-17.3C466.4,561.3,466.2,540,466.3,518.6Z" transform="translate(-220.4 -267.5)"/><path class="cls-4" d="M478.5,627.3c20.4-.2,36.5,6.8,48.3,22,3.8,4.8,7,6.2,12.9,4.7,14.1-3.7,29.7,4.4,35.7,17.7,1.8,4,1.6,6.3-2.8,8.4-31.7,15.4-63.2,31.1-94.7,46.8a8.1,8.1,0,0,1-8-.2l-98.2-48.5c-4.2-2-4.4-4.2-2.2-7.7,3.2-5.1,7.7-8.9,13.6-9.2s8.9-4.3,10-10.8c3.5-22,24.5-34.1,44.2-25.8,11.8,5,22.3,15.4,20.7,28.3,10.8,8.2,12.9-5.3,11.4-8.1a71.4,71.4,0,0,1-5.3-13.5c-.5-1.8,2-2,3.4-2.3Z" transform="translate(-220.4 -267.5)"/><path class="cls-5" d="M232.9,335.1c7.4,1.1,9.4,4.6,9.4,11.3-.2,96.8,0,193.6-.3,290.4,0,7.5,2.2,11.3,9.1,14.7q105,51.4,209.5,103.7c9.2,4.6,17,4.9,26.2.3,22.2-10.9,44.7-21,67-31.6,3.9-1.8,6.2-2.3,8.3,2.5s1.6,6.2-2.9,8.3q-37.7,17.5-75.3,35.6c-8,3.8-15.2,2.4-22.8-1.4-71.7-36.1-143.3-72.2-215.4-107.6-10-5-13.1-10.4-13.1-21.4.5-98.4.3-196.7.3-295.1Z" transform="translate(-220.4 -267.5)"/><path class="cls-5" d="M715.1,335.2v7.5q0,151.7.1,303.3c0,6.2-1.6,9.6-7.3,12.6-33.8,17.3-67.5,35.1-101.2,52.8-2.7,1.4-5.3,4.3-7.7-1s-2.7-6.7,2.5-9.3c32.1-16.4,63.8-33.4,95.9-49.7,6.5-3.3,8.6-7.1,8.5-14.2-.2-96.8-.1-193.5-.3-290.3C705.6,340.2,707.2,336.1,715.1,335.2Z" transform="translate(-220.4 -267.5)"/><path class="cls-6" d="M258,643c3.3-4.3,10.6-1.6,13.4-.3C332.9,673,394.6,703,455.8,734.1c13.2,6.7,23.2,6.8,36.5,0C553.4,702.9,618.5,671.3,680,641c2.8-1.4,21.4,1.4,25,6-16.8,12.8-168.8,88.8-220,110-4.6,2.8-19.4,2.2-23-1-67.6-32-216.2-104.1-217-109C245,647,258.8,643.6,258,643Z" transform="translate(-220.4 -267.5)"/><path class="cls-7" d="M258.8,335.9v7.3q0,147.5-.2,294.9c0,3.4,6.2,8-16,8.9v-7.3c0-98.3-.1-196.6.2-294.9C242.8,341.5,236.5,336.8,258.8,335.9Z" transform="translate(-220.4 -267.5)"/><path class="cls-6" d="M689,336c22.8,1.2,16.1,5.9,16.1,9.2.3,82.9.2,165.8.2,248.7V647c-20.7-.3-16.2-4.6-16.2-7.8-.2-32.6-.1-65.2-.1-97.8V336Z" transform="translate(-220.4 -267.5)"/><path class="cls-8" d="M611.3,766.3c-.9,2.9-4.5,2.8-6.9,4.2s-6.7,2-8.6-1.8q-12-24.9-23.6-50.1c-2.2-4.8,3.3-4,5.3-5.6,5.2-3.9,8.3-2.9,11,3.6,6,14.2,13,27.9,19.5,41.8C609.1,760.7,610,763.1,611.3,766.3Z" transform="translate(-220.4 -267.5)"/><path class="cls-9" d="M666.8,786.3c-8.6-4.3-12.2-.9-14.7,6.2-4.4-8.8-10.8-16.4-11.2-24.3-.4-9.5.5-18.8-3.8-27.7-.6-1.3,1-2.6,2.7-3.1s4.1,1,5.2,3.2Z" transform="translate(-220.4 -267.5)"/><path class="cls-10" d="M435.3,374.6v37.7c0,1.5.1,3.4-2,3.5s-2.5-2-2.5-3.7c-.1-10.5,0-21.1-.1-31.6C430.7,377.6,431.7,375.6,435.3,374.6Z" transform="translate(-220.4 -267.5)"/><path class="cls-10" d="M512.6,375.2c4.3,1.1,4.6,3.6,4.6,6.2,0,10.1.1,20.1,0,30.1,0,1.7.6,4.1-2,4.3s-2.5-2.7-2.5-4.5C512.6,399.5,512.6,387.7,512.6,375.2Z" transform="translate(-220.4 -267.5)"/><path class="cls-10" d="M474.3,436.4c-2.5-1.3-7.6,2.5-7.9-3.8s4.3-4.1,7-3.9,7.9-2.6,8.2,3.5S477.3,435.6,474.3,436.4Z" transform="translate(-220.4 -267.5)"/><path class="cls-11" d="M449.5,428.6c2.7-.3,4.4.5,4.4,3.7s-1.4,4.2-4.2,4-5,.6-4.9-3.2S446.2,428.3,449.5,428.6Z" transform="translate(-220.4 -267.5)"/><path class="cls-11" d="M494.2,432.8c-.4-3.3,1.1-4.2,4-4.3s4.8,1.1,5,4.4-1.6,3.4-3.9,3.4S493.8,436.7,494.2,432.8Z" transform="translate(-220.4 -267.5)"/><path class="cls-12" d="M580.1,327.3l-30,9.4c-3,.9-1.8,3.3-1.8,5.2-.1,23-.3,46,0,69,.1,11.3-4.4,19.3-14.1,25.1-18.6,11.2-39,14.6-60.2,13.8a159.5,159.5,0,0,1-56.6-12.1c-12.6-5.3-18.7-14-18.4-28,.4-23.1,0-46.3.2-69.5.1-3.7-1.1-5.3-4.6-6.2-15-4.1-30-8.5-45.1-12.6-4.7-1.4-8.5-3.3-8.4-9s3.6-7.2,8.1-8.6l113.1-35.5a15.9,15.9,0,0,1,9.4-.1l126.4,36c4.6,1.3,8.1,3.3,8.1,8.6s-8,8.7-8,8.7Z" transform="translate(-220.4 -267.5)"/><path class="cls-13" d="M592.8,312.9l-43.3,13.7-64.6,20.2c-2.5.7-4.8,1.4-7.6.6l-120-34.1-.9-.6c1-2.1,3.2-1.8,4.9-2.4,33.9-10.7,67.8-21.2,101.8-31.8a11.4,11.4,0,0,1,7.1-.5C510.5,289.6,550.8,301,592.8,312.9Z" transform="translate(-220.4 -267.5)"/><path class="cls-14" d="M409.1,339.2c16,4.6,31.6,8,46.6,13.5,16.7,6.1,32.5,6.5,49-.7,9.3-4.1,19.4-6.2,29-9.3,3.1-1,4.7-1.3,4.6,3-.3,11.1-1.1,22.3-.1,33.3,1.8,19,1.1,20-3.2,23-23,11-42,16-65,16-18,0-36.2-8-52-15-10.3-4.5-10,0-9.1-27.7C409.3,363.5,409.1,351.7,409.1,339.2Z" transform="translate(-220.4 -267.5)"/><path class="cls-15" d="M409.1,398.3c56,24.7,78.4,24.7,129,.4,0,5.9.3,11.7-.1,17.4s-3.3,7.8-7.1,10.3c-13.9,9-29.3,12.6-45.5,13.4A149.8,149.8,0,0,1,424,429.7c-13-5-14.9-8.1-14.9-21.8Z" transform="translate(-220.4 -267.5)"/><text class="cls-16" transform="translate(575.1 222.2)">Bitáco<tspan class="cls-17" x="730.5" y="0">r</tspan><tspan class="cls-18" x="834.7" y="0">a </tspan><tspan x="0" y="219">DI</tspan><tspan class="cls-19" x="240.7" y="219">S</tspan><tspan class="cls-20" x="373.7" y="219">C</tspan></text></svg>