<svg id="Capa_1" data-name="Capa 1" xmlns="http://www.w3.org/2000/svg" viewBox="0 0 1891.4 704.1"><defs><style>.cls-1{fill:#322e63;}.cls-2{fill:#343063;}.cls-3{fill:#332f63;}.cls-25,.cls-4{fill:#eaf2fe;}.cls-5{fill:#28b0d4;}.cls-6{fill:#36c7e2;}.cls-7{fill:#fe765c;}.cls-8{fill:#b3d1f7;}.cls-9{fill:#fefefe;}.cls-10{fill:#fddb7a;}.cls-11{fill:#fdda7a;}.cls-12{fill:#2fb3c1;}.cls-13{fill:#f1bd4b;}.cls-14{fill:#2fb0bf;}.cls-15{fill:#343165;}.cls-16{fill:#353165;}.cls-17{fill:#322f64;}.cls-18{fill:#322f63;}.cls-19{fill:#323064;}.cls-20{fill:#121873;}.cls-21{fill:#889af9;}.cls-22{fill:#6783f5;}.cls-23{fill:#f6d75d;}.cls-24{fill:#f3d65d;}.cls-25{font-size:281.1px;font-family:RoundedMplus1c-Medium, "Rounded Mplus 1c";font-weight:500;}.cls-26{letter-spacing:-0.03em;}.cls-27{letter-spacing:-0.01em;}</style></defs><title>logo_bitacora_light</title><path class="cls-1" d="M647.2,467.3c0,63.4-.1,126.7.2,190,.1,7.8-2.6,12-9.4,15.4-41.9,21.7-83.7,43.9-125.7,65.6-5.4,2.8-6.4,5.2-3.9,10.8s6.6,3.9,10.6,2c5.7-2.8,11.3-5.7,17.1-8.3,11.6-5.1,22.7-1.1,28,10l29.5,63c2,4.3,5.2,8.7,1.1,13.3s-8.7,2.3-12.5.5c-8-4-11.8-1.5-14,6.6-1.1,4.2-2.5,9.1-8.4,9.2s-7.2-4.6-9.2-8.6c-5.3-10.8-10.9-21.5-15.6-32.6-2.5-5.7-5.1-6.1-10-3.4s-10.4,4.9-15.6,7.1c-13.7,5.8-24.2,2-30.7-11.3-4.4-9.2-9-18.3-13-27.8-2.2-5.3-4.5-5.6-9.4-3.2-27.9,13.5-56.1,26.4-83.8,40.1-15,7.4-29.1,7.5-44.1,0Q195.4,738.7,62,672.2c-6.2-3.2-8.6-7-8.6-14q.3-191,.2-381.8c0-12.9,3.8-15.2,15.2-9.3a30.5,30.5,0,0,1,4,2.1c8.3,6.6,16.2,6.2,24-1,5.6-5.1,10.9-4.7,17.9-1.1,47.5,24.8,95.4,48.9,143,73.4,4.9,2.6,8.3,3,12.6-1.2s11.1-9.2,16.8-13.6c12.3-9.6,114-9.4,127.1.9,6.9,5.3,13,14,20.6,15.6s15.6-6.3,23.3-10.2q65.3-32.8,130.5-66.1c5-2.6,9.2-2.8,13.1.9,9.4,8.6,18.2,8.1,28.9,1.3,12.8-8.1,16.6-5.3,16.6,10.2Z" transform="translate(-53.4 -141.3)"/><path class="cls-2" d="M264.8,159.3c5.8,9.2,13.1,19.1,17.6,30.6,1.2,2.9-.9,5.9-3.7,7.4a6.3,6.3,0,0,1-8.8-2.1c-5.8-9.1-11.4-18.4-16.6-27.8-1.7-3-1.3-6.3,2-8.7S260.7,156.6,264.8,159.3Z" transform="translate(-53.4 -141.3)"/><path class="cls-2" d="M432.2,161.1c-5.8,9.2-13.1,19.1-17.7,30.6-1.1,2.9,1,5.9,3.8,7.4a6.3,6.3,0,0,0,8.8-2.1c5.8-9.1,11.3-18.3,16.6-27.8,1.7-3,1.3-6.3-2-8.7S436.3,158.4,432.2,161.1Z" transform="translate(-53.4 -141.3)"/><path class="cls-3" d="M355,142.2c3,1.5,4.1,4.3,4.2,7.4.1,9.6.3,19.2.2,28.8,0,4.8-2.1,8.4-7.3,8.2s-7.2-3.6-7.3-8.5c-.1-9.3-.4-18.6-.2-27.9C344.8,143.1,349.7,139.5,355,142.2Z" transform="translate(-53.4 -141.3)"/><path class="cls-4" d="M587.5,282.9V596.3a33.8,33.8,0,0,1,0,4.5c-.4,2.1,1.5,5.5-2.4,5.6s-2.6-2.7-3.2-4.7c-6.5-19.5-19.6-32.1-39.9-36.6-9.9-2.2-19.9-1.7-29.2,2.5-5,2.2-8.3,1.8-12.7-1.9-12.1-10.3-26.3-14.2-42.1-11.4-3.7.6-5.8,0-8.4-2.9-10.3-11.7-23.5-15.6-38.4-11.5s-24,14.4-26.7,29.9c-.3,2-.9,4.1-1.2,6.1s-1.3,4.1-3.8,4.4-4.5-1.7-5-4.1a36.8,36.8,0,0,1-.5-8.1c-.1-47.4.1-94.7-.3-142,0-1.8.2,11.1.2-14.3,0-21.7,70.9-56.6,73.7-58C493.8,330.5,539.9,307.1,587.5,282.9Z" transform="translate(-53.4 -141.3)"/><path class="cls-4" d="M113.5,605.5V283.3l39.6,20c32.2,16.4,64.2,33,96.5,49.2,4.3,2.1,77.3,33.6,77.3,64.8v148c0,1.8.1,3.6,0,5.4-.2,3.8.6,8.9-4.6,9.5s-4.9-5.3-5.4-8.6c-2.8-16.1-11.4-27.2-27.2-31.6s-28.6-.2-39,12c-2.4,2.9-4.6,2.8-7.8,2.3-16.8-2.9-31.6,1.8-44.2,13.1-3,2.6-5,3.6-9.2,1.8-31.3-13.5-62.2.7-72.8,33-.5,1.3-1.1,2.5-1.7,3.8Z" transform="translate(-53.4 -141.3)"/><path class="cls-5" d="M341.4,499.5c0-24.7.3-49.5-.2-74.2-.2-7.8,3.6-7.8,9.3-7.9s9.2.5,9.1,8.1c-.3,49.1-.2,98.3-.1,147.4,0,17.6,15.2,27.6,29.3,19.6,7.3-4.2,9.5-11.1,10.3-19a22.3,22.3,0,0,1,34.3-17c4,2.5,6.2,4.7.8,8.2a32.2,32.2,0,0,0-6.6,6.2c-3.1,3.3-3.5,7.1-.1,10.4s7.1,2.9,10.4-.4a41.4,41.4,0,0,1,14-9.7,37.8,37.8,0,0,1,52.3,30.6c.2,1.5.2,3,.4,4.5.7,4.1,2.9,6.7,7.2,6.6s6.9-3.2,7.1-7.7-.3-10.5-2.4-15.1c-3.1-6.9,0-9,6.1-10.6,21.4-5.5,43.6,10,46.6,32.7,1.7,12.5,1.7,12.5,14,10.3,1.5-.2,3.2-.8,3.8.9s.6,3.5-.2,4.3a19.6,19.6,0,0,1-5.9,3.9c-29.7,14.8-59.5,29.3-89,44.3-5.6,2.8-7.4,1.3-9.9-3.8-9.7-20-29.7-31.5-51.5-29.6-4.4.4-7.2-.5-10.2-3.6-24.7-25.3-54.2-32.2-87.8-22.1-3.9,1.2-6.5.8-9.9-1.4-31.6-20.4-70.3-5.6-80.4,30.7-1.1,4-2.5,6.1-6.5,7.4a34.1,34.1,0,0,0-20.8,17.8c-2.2,4.4-4.2,5.4-8.9,3.1-29.1-14.7-58.3-29-87.5-43.4-2.6-1.3-6.2-2.5-4.9-6.4s4.3-.3,6.4-.1c8.4.5,9-4.8,9.5-11,1.8-24.2,25.7-40.2,48.8-33.3,6.1,1.9,8.6,4.4,5.7,10.9a32.1,32.1,0,0,0-2,15.1c.4,4.2,2.8,6.6,7.1,6.7s6.2-2.2,7-5.9.5-6.6,1.3-9.8c6.9-27.4,38.8-38.1,61-20.5A61.7,61.7,0,0,1,263,581c3.5,3.3,7.2,3.4,10.4.2s2.8-7.1-.3-10.5l-4.4-4.4c-7-6.2-6.7-7.8,2.1-11.5a22.4,22.4,0,0,1,31,17.9,49.3,49.3,0,0,0,.5,5.4c2.5,11.6,11,17.9,22.1,16.7s16.8-9.2,16.9-20.2C341.5,549.6,341.3,524.5,341.4,499.5Z" transform="translate(-53.4 -141.3)"/><path class="cls-6" d="M355.7,626.8c23.9-.2,42.8,7.9,56.6,25.7,4.4,5.7,8.2,7.4,15.1,5.6,16.5-4.4,34.7,5.2,41.8,20.7,2.1,4.7,1.8,7.4-3.3,9.9-37.1,18-74,36.3-111,54.7-3.3,1.7-6,1.5-9.3-.1q-57.5-28.5-115-56.8c-4.9-2.4-5.1-5-2.5-9.1,3.7-6,8.9-10.4,15.8-10.8,8.7-.5,10.5-5,11.7-12.6,4.2-25.7,28.7-40,51.8-30.2,13.8,5.8,21.9,16.5,23.3,31.7,1,11.3,3.5,13,14.2,9.3,14.7-5.2,28.6,2.8,31,18.2.9,5.5,1.9,10.6,8.9,9.6s5.9-6.7,5.6-11.4c-1.2-17.9-18-32.6-37.1-32.7-2.8,0-6.6,2.2-8.3-1a82.8,82.8,0,0,1-6.1-15.9c-.6-2.1,2.3-2.3,4-2.6Z" transform="translate(-53.4 -141.3)"/><path class="cls-7" d="M68.1,284.5c8.6,1.4,11,5.5,11,13.3-.3,113.4-.1,226.8-.4,340.2,0,8.7,2.5,13.2,10.6,17.1q123,60.3,245.4,121.5c10.8,5.4,19.9,5.8,30.8.4,25.9-12.8,52.3-24.6,78.4-37,4.5-2.1,7.3-2.7,9.7,2.9s1.9,7.2-3.3,9.7q-44.2,20.5-88.3,41.7c-9.3,4.5-17.8,2.8-26.7-1.7-84-42.2-167.9-84.6-252.2-126-11.8-5.8-15.4-12.1-15.4-25,.6-115.2.4-230.5.4-345.7Z" transform="translate(-53.4 -141.3)"/><path class="cls-7" d="M632.8,284.7v8.7q0,177.8.1,355.4c0,7.1-1.8,11.2-8.5,14.6-39.7,20.4-79,41.2-118.5,61.9-3.2,1.6-6.3,5.1-9.1-1.2s-3.1-7.8,3-10.9c37.5-19.2,74.7-39.1,112.3-58.1,7.6-3.9,10-8.4,10-16.7-.3-113.4-.1-226.7-.4-340C621.7,290.5,623.6,285.7,632.8,284.7Z" transform="translate(-53.4 -141.3)"/><path class="cls-8" d="M102.7,644.7c3.8-5.1,7.2-1.4,10.4.2,72.1,35.5,144.4,70.6,216,107,15.5,7.9,27.2,7.9,42.7,0,71.6-36.5,143.9-71.5,216-107,3.2-1.7,6.6-5.2,10.9.3-16.9,8.8-33.7,17.3-50.3,26.3-62.1,33.9-126.7,62.6-190.6,92.9-4.6,2.1-8.5,2.9-13.6.4Q225,705.6,105.5,646.7A24.3,24.3,0,0,1,102.7,644.7Z" transform="translate(-53.4 -141.3)"/><path class="cls-9" d="M98.8,285.6V621.1c0,3.7,2,8.9-5.4,9.8v-8q0-163.8.1-327.5C93.5,291.7,91.4,286.5,98.8,285.6Z" transform="translate(-53.4 -141.3)"/><path class="cls-8" d="M602,285.6c7.6,1.4,5.3,6.6,5.3,10.2q.2,138,.1,276v58.9c-6.9-.4-5.4-5.1-5.4-8.7V285.6Z" transform="translate(-53.4 -141.3)"/><path class="cls-10" d="M511.2,789.6c-1,3.5-5.2,3.3-8,4.9s-7.9,2.4-10.1-2.1c-9.4-19.4-18.7-39-27.7-58.6-2.6-5.7,3.9-4.8,6.3-6.6,6-4.6,9.6-3.4,12.8,4.2,7,16.6,15.2,32.7,22.9,48.9C508.7,783.1,509.7,785.9,511.2,789.6Z" transform="translate(-53.4 -141.3)"/><path class="cls-11" d="M576.3,813.1C566.1,808,562,812,559,820.3c-5.1-10.3-12.7-19.2-13.1-28.5-.5-11.1.6-21.9-4.4-32.4-.8-1.5,1.1-3,3.1-3.6,3.5-1.1,4.9,1.2,6.1,3.7Z" transform="translate(-53.4 -141.3)"/><path class="cls-12" d="M305.1,330.8V375c0,1.8.1,3.9-2.4,4.1s-2.9-2.4-2.9-4.4c-.1-12.3,0-24.6-.1-36.9C299.7,334.4,300.9,332,305.1,330.8Z" transform="translate(-53.4 -141.3)"/><path class="cls-12" d="M395.7,331.6c4.9,1.2,5.4,4.1,5.4,7.3,0,11.7,0,23.4-.1,35.2,0,1.9.7,4.8-2.3,5s-3-3.1-3-5.3C395.6,360,395.7,346.2,395.7,331.6Z" transform="translate(-53.4 -141.3)"/><path class="cls-12" d="M350.7,403.2c-2.9-1.5-8.9,2.9-9.2-4.5s5-4.7,8.3-4.5,9.1-3.1,9.5,4.2S354.3,402.3,350.7,403.2Z" transform="translate(-53.4 -141.3)"/><path class="cls-13" d="M532.4,777.8c-.2,3.2-2.2,4.6-4.7,5s-9.4-10.4-9-13.5,4.4-4.8,5.9-4.2C530.2,767.2,529.9,773.6,532.4,777.8Z" transform="translate(-53.4 -141.3)"/><path class="cls-14" d="M321.7,394.1c3.2-.3,5.2.6,5.2,4.4s-1.7,4.8-5,4.6-5.8.7-5.7-3.7S317.8,393.7,321.7,394.1Z" transform="translate(-53.4 -141.3)"/><path class="cls-14" d="M374,399c-.4-3.8,1.4-5,4.8-5s5.6,1.2,5.8,5.1-1.8,4-4.5,4S373.6,403.6,374,399Z" transform="translate(-53.4 -141.3)"/><path class="cls-3" d="M484.3,509.3c.1,2.9-16.8,19.5-19.7,19.3s-18.4-16.7-18.5-18.6,15.9-20,19-20S484.2,507,484.3,509.3Z" transform="translate(-53.4 -141.3)"/><path class="cls-15" d="M428.7,447.3c-6.6-.9-10.1-4.2-9.8-10.7s4.4-10,10.5-9.7,9.9,4.2,9.6,10.6S434.6,446.9,428.7,447.3Z" transform="translate(-53.4 -141.3)"/><path class="cls-15" d="M398.7,492.5c-6-.5-10-3.6-10.2-10s3.8-10.3,9.9-10.4,10,3.4,10.2,9.9S405.1,491.8,398.7,492.5Z" transform="translate(-53.4 -141.3)"/><path class="cls-3" d="M247.4,499c-.1,2.9-16.5,19-19.3,19s-19.1-16.7-19-19.3,16.8-19.3,19.3-19.2S247.4,496.6,247.4,499Z" transform="translate(-53.4 -141.3)"/><path class="cls-16" d="M303.4,460.9c-.4,6.3-3.8,10.4-10,10.5s-10.2-3.2-10.3-10,3.4-10.1,9.8-10.3S302.6,454.7,303.4,460.9Z" transform="translate(-53.4 -141.3)"/><path class="cls-16" d="M237.6,416.6c6.6.7,10.1,4,9.9,10.5s-4.3,10-10.3,9.9-10-4.2-9.8-10.6S231.6,416.9,237.6,416.6Z" transform="translate(-53.4 -141.3)"/><path class="cls-17" d="M230.3,576.9c3.8-.3,6.4,1.6,7.5,5.2s-.4,7.1-3.9,8.1c-7.8,2.3-11.8,7.6-14.3,14.9-1.2,3.3-4.4,5-8.2,3.9s-5.3-3.9-5.4-7.5C205.8,591.1,220,576.8,230.3,576.9Z" transform="translate(-53.4 -141.3)"/><path class="cls-18" d="M318,690.5c0,2.4-16,18.9-18.4,19s-21.2-17.4-19.4-19.5c5.4-6.7,11.9-12.6,18-18.8.1-.2.6-.1.9-.1C301.8,671,318.1,687.6,318,690.5Z" transform="translate(-53.4 -141.3)"/><path class="cls-19" d="M262.3,649.2c1-8,12-19.4,22.1-21.1,4-.7,7.1.4,8.8,4.3s.4,7.7-3.3,9c-7.4,2.5-12,7.1-14.2,14.7-1.2,4.1-5.1,5-8.8,3.8S261.4,655.6,262.3,649.2Z" transform="translate(-53.4 -141.3)"/><path class="cls-20" d="M474.7,275.5l-35.1,10.9c-3.6,1.1-2.2,4-2.2,6.1-.1,26.9-.3,53.9,0,80.8.2,13.2-5.2,22.7-16.5,29.4-21.8,13.1-45.7,17.1-70.5,16.2a187.2,187.2,0,0,1-66.3-14.2c-14.7-6.1-21.8-16.4-21.5-32.7.5-27.2,0-54.3.2-81.5.1-4.3-1.2-6.1-5.3-7.2-17.7-4.8-35.2-10-52.8-14.8-5.6-1.6-10-3.9-10-10.5s4.3-8.5,9.6-10.1l132.4-41.5a18,18,0,0,1,11-.2l148.1,42.2c5.4,1.5,9.5,3.8,9.5,10.1s-3.9,9.3-9.4,10.1c-8,1.2-9.4,5.5-9.9,13.3-1.3,18.3,3.3,34.4,11.2,50.5s4.9,20.9-13.3,20.9H470c-8.3-.3-12.4-6.4-9.4-14.1s6-15.8,10.2-23,4.1-12.6,3.9-19.4S474.7,283.1,474.7,275.5Z" transform="translate(-53.4 -141.3)"/><path class="cls-21" d="M489.6,258.6l-50.7,16-75.7,23.6c-2.9.9-5.7,1.7-8.9.8L213.8,259a3.4,3.4,0,0,1-1.1-.7c1.2-2.4,3.8-2.1,5.7-2.7q59.6-18.9,119.2-37.4c2.8-.8,5.3-1.3,8.3-.5C393.2,231.3,440.4,244.6,489.6,258.6Z" transform="translate(-53.4 -141.3)"/><path class="cls-22" d="M274.4,288.3c18.7,5.3,37.1,9.3,54.6,15.7,19.6,7.2,38.1,7.6,57.4-.8,10.8-4.8,22.7-7.2,34-10.9,3.5-1.1,5.5-1.6,5.4,3.5-.4,13-.2,26-.1,39.1a16.7,16.7,0,0,1-7.8,14.5c-21.9,15-46.2,21-72.7,18.9-20.2-1.6-39.2-7.2-57.5-16-9.5-4.5-14-11-13.5-21.8C274.9,316.7,274.4,302.8,274.4,288.3Z" transform="translate(-53.4 -141.3)"/><path class="cls-23" d="M274.4,358.6c65.6,28.9,91.8,28.9,151.1.4,0,6.9.4,13.7-.1,20.4s-3.9,9.1-8.4,12.1c-16.2,10.6-34.3,14.8-53.2,15.7a175.2,175.2,0,0,1-72-11.8c-15.2-5.9-17.4-9.5-17.4-25.6Z" transform="translate(-53.4 -141.3)"/><path class="cls-24" d="M472.1,341.7c2.9-6.6,5.3-12.4,8.3-19.3,2.7,6,4.9,11,7.1,16.1.9,2.2.3,3.3-2.2,3.2Z" transform="translate(-53.4 -141.3)"/><text class="cls-25" transform="translate(682.9 319.7)">Bitáco<tspan class="cls-26" x="855.7" y="0">r</tspan><tspan x="977.7" y="0">a </tspan><tspan x="0" y="281.1">DI</tspan><tspan class="cls-27" x="281.9" y="281.1">S</tspan><tspan x="437.7" y="281.1">C</tspan></text></svg>